<svg width="90" height="90" viewBox="0 0 90 90" fill="none" xmlns="http://www.w3.org/2000/svg">
<g clip-path="url(#clip0_7_204)">
<path d="M20.5051 27.5452H27.693C26.8636 31.4559 26.5446 35.5156 26.5446 39.4335C26.5446 40.5981 27.4893 41.5428 28.6539 41.5428C29.8185 41.5428 30.7632 40.5981 30.7632 39.4335C30.7632 35.5306 31.0925 31.4327 32.002 27.5452H56.5646C57.4742 31.4327 57.8033 35.5306 57.8033 39.4335C57.8033 40.5981 58.7481 41.5428 59.9127 41.5428C61.0772 41.5428 62.022 40.5981 62.022 39.4335C62.022 35.5156 61.7029 31.4559 60.8736 27.5452H68.375C68.9425 27.5452 69.4053 27.9935 69.4287 28.5553L73.3286 76.0864L73.3295 76.0863C73.3771 76.6668 72.9451 77.1762 72.3646 77.2238C72.3351 77.2262 72.3059 77.2273 72.2768 77.2273H16.5939C16.0114 77.2273 15.5392 76.7551 15.5392 76.1726C15.5392 76.1282 15.5419 76.0845 15.5473 76.0415L19.4467 28.5175L20.4973 28.5999L19.4461 28.5137C19.4915 27.9595 19.9578 27.5406 20.5051 27.5452L20.5051 27.5452Z" fill="white"/>
<path d="M27.5991 39.4334C27.5991 40.0159 28.0713 40.4881 28.6538 40.4881C29.2363 40.4881 29.7085 40.0159 29.7085 39.4334C29.7085 26.0511 33.5718 17.5448 38.5167 13.8726C40.3446 12.5152 42.3181 11.8365 44.2832 11.8365C46.2483 11.8365 48.2219 12.5152 50.0498 13.8727C54.9946 17.5447 58.8579 26.051 58.8579 39.4333C58.8579 40.0158 59.3302 40.488 59.9126 40.488C60.4951 40.488 60.9673 40.0158 60.9673 39.4333C60.9673 25.3101 56.7282 16.2128 51.3022 12.1835C49.0971 10.5459 46.6944 9.72705 44.2832 9.72705C41.8721 9.72705 39.4694 10.5458 37.2642 12.1834C31.8383 16.2128 27.5991 25.3102 27.5991 39.4333V39.4334Z" fill="white"/>
</g>
<defs>
<clipPath id="clip0_7_204">
<rect width="90" height="90" fill="white"/>
</clipPath>
</defs>
</svg>
