<svg width="180" height="180" viewBox="0 0 180 180" fill="none" xmlns="http://www.w3.org/2000/svg">
<path d="M44.148 107.496C64.56 81.84 88.8 42.12 90.204 16.8C122.208 55.416 133.824 85.5 137.388 110.316" stroke="black" stroke-width="4" stroke-miterlimit="10"/>
<path d="M79.512 137.268C73.056 157.008 50.436 172.068 30.684 165.588C10.932 159.108 1.56 133.668 8.016 113.988C14.472 94.308 33.396 90.54 53.136 96.996C72.876 103.452 85.968 117.528 79.512 137.268Z" fill="#3E0732" stroke="#3E0732" stroke-width="4" stroke-miterlimit="10"/>
<path d="M173.4 106.8C177 127.2 164.136 151.2 143.676 154.8C123.216 158.4 102.876 140.4 99.276 119.904C95.676 99.408 110.616 87.276 131.064 83.664C151.512 80.052 169.788 86.328 173.4 106.8Z" fill="#3E0732" stroke="black" stroke-width="4" stroke-miterlimit="10"/>
<path d="M26.1 120.132C30.9513 120.132 34.884 116.199 34.884 111.348C34.884 106.497 30.9513 102.564 26.1 102.564C21.2487 102.564 17.316 106.497 17.316 111.348C17.316 116.199 21.2487 120.132 26.1 120.132Z" fill="white"/>
<path d="M115.296 115.908C120.147 115.908 124.08 111.975 124.08 107.124C124.08 102.273 120.147 98.3401 115.296 98.3401C110.445 98.3401 106.512 102.273 106.512 107.124C106.512 111.975 110.445 115.908 115.296 115.908Z" fill="white"/>
</svg>
