<svg width="100" height="100" viewBox="0 0 100 100" fill="none" xmlns="http://www.w3.org/2000/svg">
<rect width="100" height="100" fill="#C847AB"/>
<path d="M24.5267 59.7199C35.8667 45.4666 49.3333 23.3999 50.1133 9.33325C67.8933 30.7866 74.3467 47.4999 76.3267 61.2866" stroke="black" stroke-width="4" stroke-miterlimit="10"/>
<path d="M44.1733 76.26C40.5867 87.2267 28.02 95.5934 17.0467 91.9934C6.07333 88.3934 0.866667 74.26 4.45333 63.3267C8.04 52.3934 18.5533 50.3 29.52 53.8867C40.4867 57.4734 47.76 65.2934 44.1733 76.26Z" fill="#3E0732" stroke="#3E0732" stroke-width="4" stroke-miterlimit="10"/>
<path d="M96.3333 59.3334C98.3333 70.6667 91.1867 84.0001 79.82 86.0001C68.4533 88.0001 57.1533 78.0001 55.1533 66.6134C53.1533 55.2267 61.4533 48.4867 72.8133 46.4801C84.1733 44.4734 94.3267 47.9601 96.3333 59.3334Z" fill="#3E0732" stroke="black" stroke-width="4" stroke-miterlimit="10"/>
<path d="M14.5 66.74C17.1952 66.74 19.38 64.5551 19.38 61.86C19.38 59.1648 17.1952 56.98 14.5 56.98C11.8049 56.98 9.62 59.1648 9.62 61.86C9.62 64.5551 11.8049 66.74 14.5 66.74Z" fill="white"/>
<path d="M64.0533 64.3933C66.7485 64.3933 68.9333 62.2084 68.9333 59.5133C68.9333 56.8182 66.7485 54.6333 64.0533 54.6333C61.3582 54.6333 59.1733 56.8182 59.1733 59.5133C59.1733 62.2084 61.3582 64.3933 64.0533 64.3933Z" fill="white"/>
</svg>
